<svg xmlns="http://www.w3.org/2000/svg" width="540" height="540" viewBox="0 0 540 540">
  <defs>
    <mask id="notch" maskUnits="userSpaceOnUse" x="0" y="0" width="540" height="540">
      <rect x="0" y="0" width="540" height="540" fill="#fff"/>
      <rect x="60" y="224" width="420" height="15" fill="#000" transform="rotate(-12 270 231)"/>
    </mask>
  </defs>
  <rect x="0" y="0" width="540" height="540" rx="124" fill="#fff"/>
  <g mask="url(#notch)">
    <path transform="translate(210.60,334)" fill="#000" d="M132.03 -184.95000000000002 127.44000000000001 -148.77Q126.9 -145.53 125.01 -143.64000000000001L94.23 -114.21000000000001Q93.42 -113.67 93.555 -113.13Q93.69000000000001 -112.59 94.5 -112.59Q105.30000000000001 -111.78 112.05000000000001 -102.87Q118.80000000000001 -93.96000000000001 118.80000000000001 -81.0Q118.80000000000001 -78.84 118.26 -74.52000000000001L115.02000000000001 -46.440000000000005Q113.4 -32.400000000000006 105.03 -21.330000000000005Q96.66000000000001 -10.260000000000002 83.565 -4.050000000000001Q70.47 2.16 54.81 2.16Q31.860000000000003 2.16 17.82 -9.585Q3.7800000000000002 -21.330000000000002 3.7800000000000002 -40.230000000000004Q3.7800000000000002 -44.28 4.050000000000001 -46.440000000000005L5.67 -58.59Q5.94 -60.480000000000004 7.020000000000001 -61.56Q8.100000000000001 -62.64 9.99 -62.64H51.300000000000004Q53.190000000000005 -62.64 54.135000000000005 -61.56Q55.080000000000005 -60.480000000000004 54.81 -58.59L54.0 -51.300000000000004Q53.46 -46.980000000000004 55.08 -44.145Q56.7 -41.31 59.940000000000005 -41.31Q63.45 -41.31 65.88 -44.010000000000005Q68.31 -46.71 68.85000000000001 -51.300000000000004L72.63000000000001 -81.81Q73.17 -86.13000000000001 71.415 -88.965Q69.66000000000001 -91.80000000000001 66.15 -91.80000000000001Q61.830000000000005 -91.80000000000001 56.43000000000001 -87.21000000000001Q54.540000000000006 -85.86 53.46 -85.86Q52.38 -85.86 51.03 -87.21000000000001L32.940000000000005 -109.62Q32.13 -110.97000000000001 32.13 -112.05000000000001Q32.13 -114.21000000000001 33.75 -115.29L66.69 -144.18Q67.23 -144.72 67.095 -145.26Q66.96000000000001 -145.8 66.15 -145.8H24.57Q22.68 -145.8 21.735 -146.88Q20.790000000000003 -147.96 21.060000000000002 -149.85000000000002L25.380000000000003 -184.95000000000002Q25.650000000000002 -186.84 26.730000000000004 -187.92000000000002Q27.810000000000002 -189.0 29.700000000000003 -189.0H128.52Q130.41 -189.0 131.35500000000002 -187.92000000000002Q132.3 -186.84 132.03 -184.95000000000002Z"/>
  </g>
  <path transform="translate(169.22,399)" fill="#000" d="M2.485 -0.8519999999999999V-48.848Q2.485 -49.202999999999996 2.7335 -49.451499999999996Q2.9819999999999998 -49.699999999999996 3.3369999999999997 -49.699999999999996H13.418999999999999Q13.774 -49.699999999999996 14.022499999999999 -49.451499999999996Q14.270999999999999 -49.202999999999996 14.270999999999999 -48.848V-10.437Q14.270999999999999 -10.081999999999999 14.626 -10.081999999999999H29.109999999999996Q29.464999999999996 -10.081999999999999 29.713499999999996 -9.833499999999999Q29.961999999999996 -9.584999999999999 29.961999999999996 -9.229999999999999V-0.8519999999999999Q29.961999999999996 -0.49699999999999994 29.713499999999996 -0.24849999999999997Q29.464999999999996 0.0 29.109999999999996 0.0H3.3369999999999997Q2.9819999999999998 0.0 2.7335 -0.24849999999999997Q2.485 -0.49699999999999994 2.485 -0.8519999999999999Z M35.012 -0.8519999999999999V-48.848Q35.012 -49.202999999999996 35.2605 -49.451499999999996Q35.509 -49.699999999999996 35.864000000000004 -49.699999999999996H45.946Q46.301 -49.699999999999996 46.5495 -49.451499999999996Q46.798 -49.202999999999996 46.798 -48.848V-0.8519999999999999Q46.798 -0.49699999999999994 46.5495 -0.24849999999999997Q46.301 0.0 45.946 0.0H35.864000000000004Q35.509 0.0 35.2605 -0.24849999999999997Q35.012 -0.49699999999999994 35.012 -0.8519999999999999Z M52.629000000000005 -13.418999999999999V-36.352Q52.629000000000005 -42.742 56.676 -46.504999999999995Q60.723 -50.267999999999994 67.468 -50.267999999999994Q74.213 -50.267999999999994 78.2955 -46.434Q82.378 -42.599999999999994 82.378 -36.209999999999994V-33.583Q82.378 -33.227999999999994 82.12950000000001 -32.979499999999994Q81.881 -32.730999999999995 81.526 -32.730999999999995H71.444Q71.089 -32.730999999999995 70.84049999999999 -32.979499999999994Q70.592 -33.227999999999994 70.592 -33.583V-36.352Q70.592 -38.056 69.74000000000001 -39.120999999999995Q68.888 -40.186 67.468 -40.186Q66.119 -40.186 65.267 -39.120999999999995Q64.415 -38.056 64.415 -36.352V-13.347999999999999Q64.415 -11.643999999999998 65.267 -10.578999999999999Q66.119 -9.514 67.468 -9.514Q68.888 -9.514 69.74000000000001 -10.578999999999999Q70.592 -11.643999999999998 70.592 -13.347999999999999V-17.892Q70.592 -18.247 70.237 -18.247H68.391Q68.036 -18.247 67.7875 -18.4955Q67.539 -18.744 67.539 -19.098999999999997V-26.624999999999996Q67.539 -26.979999999999997 67.7875 -27.228499999999997Q68.036 -27.476999999999997 68.391 -27.476999999999997H81.526Q81.881 -27.476999999999997 82.12950000000001 -27.228499999999997Q82.378 -26.979999999999997 82.378 -26.624999999999996V-13.418999999999999Q82.378 -7.028999999999999 78.2955 -3.2304999999999997Q74.213 0.568 67.468 0.568Q60.723 0.568 56.676 -3.2304999999999997Q52.629000000000005 -7.028999999999999 52.629000000000005 -13.418999999999999Z M88.06700000000001 -14.483999999999998V-48.848Q88.06700000000001 -49.202999999999996 88.31550000000001 -49.451499999999996Q88.56400000000001 -49.699999999999996 88.919 -49.699999999999996H99.001Q99.356 -49.699999999999996 99.6045 -49.451499999999996Q99.853 -49.202999999999996 99.853 -48.848V-13.347999999999999Q99.853 -11.643999999999998 100.6695 -10.578999999999999Q101.486 -9.514 102.83500000000001 -9.514Q104.184 -9.514 105.0005 -10.578999999999999Q105.81700000000001 -11.643999999999998 105.81700000000001 -13.347999999999999V-48.848Q105.81700000000001 -49.202999999999996 106.0655 -49.451499999999996Q106.314 -49.699999999999996 106.669 -49.699999999999996H116.751Q117.106 -49.699999999999996 117.3545 -49.451499999999996Q117.603 -49.202999999999996 117.603 -48.848V-14.483999999999998Q117.603 -10.011 115.757 -6.603Q113.911 -3.195 110.574 -1.3135Q107.237 0.568 102.83500000000001 0.568Q98.43299999999999 0.568 95.096 -1.3135Q91.759 -3.195 89.91300000000001 -6.603Q88.06700000000001 -10.011 88.06700000000001 -14.483999999999998Z M150.272 -39.617999999999995H136.001Q135.646 -39.617999999999995 135.646 -39.263V-30.316999999999997Q135.646 -29.961999999999996 136.001 -29.961999999999996H143.811Q144.166 -29.961999999999996 144.4145 -29.713499999999996Q144.663 -29.464999999999996 144.663 -29.109999999999996V-20.660999999999998Q144.663 -20.305999999999997 144.4145 -20.057499999999997Q144.166 -19.808999999999997 143.811 -19.808999999999997H136.001Q135.646 -19.808999999999997 135.646 -19.453999999999997V-10.437Q135.646 -10.081999999999999 136.001 -10.081999999999999H150.272Q150.627 -10.081999999999999 150.8755 -9.833499999999999Q151.124 -9.584999999999999 151.124 -9.229999999999999V-0.8519999999999999Q151.124 -0.49699999999999994 150.8755 -0.24849999999999997Q150.627 0.0 150.272 0.0H124.712Q124.357 0.0 124.10849999999999 -0.24849999999999997Q123.86 -0.49699999999999994 123.86 -0.8519999999999999V-48.848Q123.86 -49.202999999999996 124.10849999999999 -49.451499999999996Q124.357 -49.699999999999996 124.712 -49.699999999999996H150.272Q150.627 -49.699999999999996 150.8755 -49.451499999999996Q151.124 -49.202999999999996 151.124 -48.848V-40.47Q151.124 -40.114999999999995 150.8755 -39.866499999999995Q150.627 -39.617999999999995 150.272 -39.617999999999995Z M199.84799999999996 -15.974999999999998Q199.84799999999996 -14.341999999999999 199.70599999999996 -11.36Q199.42199999999997 -5.9639999999999995 195.65899999999996 -2.698Q191.89599999999996 0.568 185.78999999999996 0.568Q181.60099999999997 0.568 178.33499999999998 -0.9584999999999999Q175.06899999999996 -2.485 173.22299999999996 -5.254Q171.37699999999998 -8.023 171.30599999999995 -11.572999999999999Q171.16399999999996 -13.986999999999998 171.16399999999996 -15.335999999999999Q171.16399999999996 -16.188 172.01599999999996 -16.188H182.09799999999996Q182.94999999999996 -16.188 182.94999999999996 -15.335999999999999Q182.94999999999996 -14.341999999999999 183.09199999999996 -12.78Q183.23399999999998 -11.289 183.94399999999996 -10.437Q184.65399999999997 -9.584999999999999 185.78999999999996 -9.584999999999999Q186.92599999999996 -9.584999999999999 187.67149999999998 -10.401499999999999Q188.41699999999997 -11.217999999999998 188.55899999999997 -12.637999999999998Q188.62999999999997 -14.2 188.62999999999997 -17.253Q188.62999999999997 -20.377 188.48799999999997 -21.796999999999997Q188.41699999999997 -23.145999999999997 187.67149999999998 -23.9625Q186.92599999999996 -24.778999999999996 185.78999999999996 -24.778999999999996Q184.65399999999997 -24.778999999999996 183.37599999999998 -23.642999999999997Q183.09199999999996 -23.358999999999998 182.80799999999996 -23.358999999999998Q182.59499999999997 -23.358999999999998 182.16899999999995 -23.642999999999997L176.98599999999996 -29.038999999999998Q176.70199999999997 -29.464999999999996 176.70199999999997 -29.677999999999997Q176.70199999999997 -29.961999999999996 176.98599999999996 -30.246L185.36399999999998 -39.263Q185.64799999999997 -39.68899999999999 185.22199999999998 -39.68899999999999H173.00999999999996Q172.65499999999997 -39.68899999999999 172.40649999999997 -39.9375Q172.15799999999996 -40.186 172.15799999999996 -40.541V-48.848Q172.15799999999996 -49.202999999999996 172.40649999999997 -49.451499999999996Q172.65499999999997 -49.699999999999996 173.00999999999996 -49.699999999999996H198.92499999999995Q199.27999999999997 -49.699999999999996 199.52849999999995 -49.451499999999996Q199.77699999999996 -49.202999999999996 199.77699999999996 -48.848V-40.257Q199.77699999999996 -39.68899999999999 199.35099999999997 -39.263L191.68299999999996 -30.387999999999998Q191.39899999999997 -29.961999999999996 191.82499999999996 -29.961999999999996Q195.01999999999995 -29.749 197.22099999999995 -26.979999999999997Q199.42199999999997 -24.211 199.63499999999996 -20.305999999999997Q199.84799999999996 -18.176 199.84799999999996 -15.974999999999998Z"/>
</svg>
